<?xml version="1.0" encoding="UTF-8"?><svg id="Layer_1" xmlns="http://www.w3.org/2000/svg" viewBox="0 0 203.0194 236.0276"><defs><style>.cls-1{fill:#00223e;}.cls-1,.cls-2{stroke-width:0px;}.cls-2{fill:#c0392b;}</style></defs><path class="cls-1" d="M52.2075,216.4776C13.9641,188.2965-5.1429,150.6435,1.1972,102.9377,7.7003,54.0059,35.9354,20.615,82.9427,5.8737c45.2567-14.1924,85.3358-2.1648,120.0767,30.669-11.6803,10.3552-22.958,20.3534-34.4552,30.5463-9.5849-7.8953-20.0862-13.4339-32.2153-15.3524-3.7716-.5965-7.6149-1.0149-11.4274-1.0307-22.6665-.0938-45.3336-.0471-68.0005-.0386-.8196.0003-1.6391.0954-3.0661.1841v165.2186c-.5491.1359-1.0981.2717-1.6472.4076Z"/><path class="cls-1" d="M95.2699,233.6552v-49.7538c1.8899-.0974,3.6395-.2501,5.3904-.2674,9.6562-.0955,19.3288.1667,28.9655-.3078,14.4406-.711,27.0638-6.3718,38.5272-15.8444,11.6776,10.4446,23.2697,20.8128,34.8545,31.1744-23.6366,27.8877-68.3755,43.6497-107.7376,34.999Z"/><path class="cls-2" d="M95.6057,142.0652v-49.5499c11.2512,0,22.253-.7686,33.0992.2027,12.392,1.1098,21.1039,12.4791,20.8549,25.2055-.2385,12.1925-9.6008,22.464-21.9131,23.9714-1.6431.2012-3.3206.1608-4.9822.1635-8.7912.0144-17.5824.0067-27.0587.0067Z"/></svg>