<?xml version="1.0" standalone="no"?>
<!DOCTYPE svg PUBLIC "-//W3C//DTD SVG 20010904//EN"
 "http://www.w3.org/TR/2001/REC-SVG-20010904/DTD/svg10.dtd">
<svg version="1.0" xmlns="http://www.w3.org/2000/svg"
 width="944.000000pt" height="944.000000pt" viewBox="0 0 944.000000 944.000000"
 preserveAspectRatio="xMidYMid meet">
<metadata>
Created by potrace 1.14, written by Peter Selinger 2001-2017
</metadata>
<g transform="translate(0.000000,944.000000) scale(0.100000,-0.100000)"
fill="#000000" stroke="none">
<path d="M5180 9433 c-392 -24 -860 -115 -1261 -247 -1207 -396 -2088 -1087
-2640 -2071 -336 -602 -544 -1332 -604 -2124 -48 -631 21 -1220 210 -1786 74
-223 128 -352 235 -566 331 -663 854 -1269 1542 -1792 76 -57 90 -65 115 -58
l28 7 5 3305 5 3304 1535 0 c1686 0 1612 2 1900 -61 352 -77 728 -259 1047
-505 l104 -81 40 34 c21 18 332 292 689 608 l650 575 -78 74 c-111 106 -352
306 -514 427 -864 645 -1805 972 -2773 962 -99 -1 -205 -3 -235 -5z"/>
<path d="M4743 5743 l-253 -3 0 -990 0 -990 609 0 c645 0 707 3 846 47 198 63
391 202 511 369 239 333 242 799 9 1149 -159 239 -384 376 -667 405 -113 12
-662 19 -1055 13z"/>
<path d="M7319 2689 c-305 -245 -666 -426 -1021 -513 -255 -63 -308 -67 -1096
-75 -429 -5 -717 -12 -723 -18 -6 -6 -8 -379 -7 -998 l3 -990 55 -12 c196 -45
580 -83 837 -83 1065 0 2177 397 2970 1059 127 106 352 323 411 398 l31 39
-676 605 c-371 332 -685 612 -698 621 -22 18 -24 17 -86 -33z"/>
</g>
</svg>
